<svg width="32" height="32" viewBox="0 0 32 32" fill="none" xmlns="http://www.w3.org/2000/svg">
  <!-- Background Circle -->
  <circle cx="16" cy="16" r="16" fill="#1DB954" />

  <!-- Music Note -->
  <path
    d="M12 8C12 7.44772 12.4477 7 13 7H21C21.5523 7 22 7.44772 22 8V18C22 20.2091 20.2091 22 18 22C15.7909 22 14 20.2091 14 18C14 15.7909 15.7909 14 18 14C19.1046 14 20 14.8954 20 16V10H14V20C14 22.2091 12.2091 24 10 24C7.79086 24 6 22.2091 6 20C6 17.7909 7.79086 16 10 16C11.1046 16 12 16.8954 12 18V8Z"
    fill="white" />

  <!-- AI Sparkle -->
  <circle cx="24" cy="8" r="2" fill="#FFD700" />
  <path d="M24 6L24.5 7L25.5 7L24.8 7.7L25 8.5L24 8L23 8.5L23.2 7.7L22.5 7L23.5 7L24 6Z"
    fill="white" />
</svg>